<mxfile host="app.diagrams.net" agent="Mozilla/5.0 (Windows NT 10.0; Win64; x64) AppleWebKit/537.36 (KHTML, like Gecko) Chrome/128.0.0.0 Safari/537.36" version="24.7.6">
  <diagram name="Page-1" id="74e2e168-ea6b-b213-b513-2b3c1d86103e">
    <mxGraphModel dx="1320" dy="666" grid="1" gridSize="10" guides="1" tooltips="1" connect="1" arrows="1" fold="1" page="1" pageScale="1" pageWidth="1100" pageHeight="850" background="none" math="0" shadow="0">
      <root>
        <mxCell id="0" />
        <mxCell id="1" parent="0" />
        <mxCell id="77e6c97f196da883-1" value="确认薪金表删除逻辑" style="swimlane;html=1;childLayout=stackLayout;startSize=20;rounded=0;shadow=0;labelBackgroundColor=none;strokeWidth=1;fontFamily=Verdana;fontSize=8;align=center;" parent="1" vertex="1">
          <mxGeometry x="390" y="70" width="380" height="480" as="geometry" />
        </mxCell>
        <mxCell id="77e6c97f196da883-2" value="HRO个税" style="swimlane;html=1;startSize=20;" parent="77e6c97f196da883-1" vertex="1">
          <mxGeometry y="20" width="160" height="460" as="geometry" />
        </mxCell>
        <mxCell id="DbTSMMrDZ-Oz69x2lzR6-1" value="删除" style="rounded=1;whiteSpace=wrap;html=1;" vertex="1" parent="77e6c97f196da883-2">
          <mxGeometry x="40" y="70" width="80" height="40" as="geometry" />
        </mxCell>
        <mxCell id="DbTSMMrDZ-Oz69x2lzR6-15" value="删除成功" style="rounded=1;whiteSpace=wrap;html=1;" vertex="1" parent="77e6c97f196da883-2">
          <mxGeometry x="40" y="130" width="80" height="40" as="geometry" />
        </mxCell>
        <mxCell id="DbTSMMrDZ-Oz69x2lzR6-18" value="删除成功" style="rounded=1;whiteSpace=wrap;html=1;" vertex="1" parent="77e6c97f196da883-2">
          <mxGeometry x="40" y="250" width="80" height="40" as="geometry" />
        </mxCell>
        <mxCell id="DbTSMMrDZ-Oz69x2lzR6-23" value="删除失败" style="rounded=1;whiteSpace=wrap;html=1;" vertex="1" parent="77e6c97f196da883-2">
          <mxGeometry x="40" y="350" width="80" height="40" as="geometry" />
        </mxCell>
        <mxCell id="77e6c97f196da883-3" value="个税" style="swimlane;html=1;startSize=20;" parent="77e6c97f196da883-1" vertex="1">
          <mxGeometry x="160" y="20" width="220" height="460" as="geometry" />
        </mxCell>
        <mxCell id="DbTSMMrDZ-Oz69x2lzR6-9" style="edgeStyle=orthogonalEdgeStyle;rounded=0;orthogonalLoop=1;jettySize=auto;html=1;entryX=0.5;entryY=0;entryDx=0;entryDy=0;" edge="1" parent="77e6c97f196da883-3" source="DbTSMMrDZ-Oz69x2lzR6-2" target="DbTSMMrDZ-Oz69x2lzR6-8">
          <mxGeometry relative="1" as="geometry" />
        </mxCell>
        <mxCell id="DbTSMMrDZ-Oz69x2lzR6-10" value="是" style="edgeLabel;html=1;align=center;verticalAlign=middle;resizable=0;points=[];" vertex="1" connectable="0" parent="DbTSMMrDZ-Oz69x2lzR6-9">
          <mxGeometry x="-0.2903" y="-1" relative="1" as="geometry">
            <mxPoint as="offset" />
          </mxGeometry>
        </mxCell>
        <mxCell id="DbTSMMrDZ-Oz69x2lzR6-2" value="数据是否存在" style="rhombus;whiteSpace=wrap;html=1;" vertex="1" parent="77e6c97f196da883-3">
          <mxGeometry x="60" y="120" width="110" height="60" as="geometry" />
        </mxCell>
        <mxCell id="DbTSMMrDZ-Oz69x2lzR6-8" value="数据是否锁定" style="rhombus;whiteSpace=wrap;html=1;" vertex="1" parent="77e6c97f196da883-3">
          <mxGeometry x="60" y="240" width="110" height="60" as="geometry" />
        </mxCell>
        <mxCell id="DbTSMMrDZ-Oz69x2lzR6-3" style="edgeStyle=orthogonalEdgeStyle;rounded=0;orthogonalLoop=1;jettySize=auto;html=1;entryX=0.5;entryY=0;entryDx=0;entryDy=0;" edge="1" parent="77e6c97f196da883-1" source="DbTSMMrDZ-Oz69x2lzR6-1" target="DbTSMMrDZ-Oz69x2lzR6-2">
          <mxGeometry relative="1" as="geometry" />
        </mxCell>
        <mxCell id="DbTSMMrDZ-Oz69x2lzR6-16" style="edgeStyle=orthogonalEdgeStyle;rounded=0;orthogonalLoop=1;jettySize=auto;html=1;entryX=1;entryY=0.5;entryDx=0;entryDy=0;" edge="1" parent="77e6c97f196da883-1" source="DbTSMMrDZ-Oz69x2lzR6-2" target="DbTSMMrDZ-Oz69x2lzR6-15">
          <mxGeometry relative="1" as="geometry" />
        </mxCell>
        <mxCell id="DbTSMMrDZ-Oz69x2lzR6-17" value="否" style="edgeLabel;html=1;align=center;verticalAlign=middle;resizable=0;points=[];" vertex="1" connectable="0" parent="DbTSMMrDZ-Oz69x2lzR6-16">
          <mxGeometry x="0.0507" y="1" relative="1" as="geometry">
            <mxPoint as="offset" />
          </mxGeometry>
        </mxCell>
        <mxCell id="DbTSMMrDZ-Oz69x2lzR6-19" style="edgeStyle=orthogonalEdgeStyle;rounded=0;orthogonalLoop=1;jettySize=auto;html=1;entryX=1;entryY=0.5;entryDx=0;entryDy=0;" edge="1" parent="77e6c97f196da883-1" source="DbTSMMrDZ-Oz69x2lzR6-8" target="DbTSMMrDZ-Oz69x2lzR6-18">
          <mxGeometry relative="1" as="geometry" />
        </mxCell>
        <mxCell id="DbTSMMrDZ-Oz69x2lzR6-20" value="否" style="edgeLabel;html=1;align=center;verticalAlign=middle;resizable=0;points=[];" vertex="1" connectable="0" parent="DbTSMMrDZ-Oz69x2lzR6-19">
          <mxGeometry x="-0.0201" y="1" relative="1" as="geometry">
            <mxPoint as="offset" />
          </mxGeometry>
        </mxCell>
        <mxCell id="DbTSMMrDZ-Oz69x2lzR6-24" style="edgeStyle=orthogonalEdgeStyle;rounded=0;orthogonalLoop=1;jettySize=auto;html=1;entryX=1;entryY=0.5;entryDx=0;entryDy=0;" edge="1" parent="77e6c97f196da883-1" source="DbTSMMrDZ-Oz69x2lzR6-8" target="DbTSMMrDZ-Oz69x2lzR6-23">
          <mxGeometry relative="1" as="geometry">
            <Array as="points">
              <mxPoint x="275" y="390" />
            </Array>
          </mxGeometry>
        </mxCell>
        <mxCell id="DbTSMMrDZ-Oz69x2lzR6-25" value="是" style="edgeLabel;html=1;align=center;verticalAlign=middle;resizable=0;points=[];" vertex="1" connectable="0" parent="DbTSMMrDZ-Oz69x2lzR6-24">
          <mxGeometry x="0.2166" y="1" relative="1" as="geometry">
            <mxPoint as="offset" />
          </mxGeometry>
        </mxCell>
      </root>
    </mxGraphModel>
  </diagram>
</mxfile>
